<svg id="Layer_1" data-name="Layer 1" xmlns="http://www.w3.org/2000/svg" viewBox="0 0 1000 1000"><defs><style>.cls-1,.cls-4{fill:#606060;}.cls-2{fill:#f84d10;}.cls-3{fill:#444;}.cls-4{font-size:15.01px;font-family:ProductSans-Regular, Product Sans;}.cls-5{letter-spacing:-0.02em;}.cls-6{letter-spacing:-0.01em;}.cls-7{letter-spacing:-0.01em;}.cls-8{letter-spacing:0em;}.cls-10,.cls-11,.cls-12,.cls-13,.cls-9{font-family:ProductSans-Bold, Product Sans;font-weight:700;}.cls-10{letter-spacing:-0.01em;}.cls-11{letter-spacing:0em;}.cls-12,.cls-14{letter-spacing:-0.03em;}.cls-13{letter-spacing:-0.01em;}.cls-15{letter-spacing:0em;}.cls-16{letter-spacing:0.01em;}.cls-17{fill:#ec1c24;}.cls-18{fill:#fff;fill-rule:evenodd;}</style></defs><title>Cornell University Logo Vector</title><polygon class="cls-1" points="436.59 945.44 426.86 967.92 421.72 967.92 412.02 945.44 417.64 945.44 424.48 961.5 431.42 945.44 436.59 945.44"/><path class="cls-1" d="M453.64,960.44H440.57c.48,2.15,2.31,3.46,4.94,3.46a5.85,5.85,0,0,0,4.34-1.67l2.66,2.89c-1.6,1.83-4,2.8-7.13,2.8-6,0-9.85-3.76-9.85-8.9s4-8.89,9.21-8.89c5.08,0,9,3.4,9,9,0,.38-.06.93-.09,1.35m-13.14-2.93H449a4.32,4.32,0,0,0-8.51,0"/><path class="cls-1" d="M455.79,959c0-5.2,4-8.89,9.63-8.89,3.63,0,6.49,1.57,7.74,4.4l-3.89,2.08a4.31,4.31,0,0,0-3.88-2.37,4.79,4.79,0,0,0,0,9.57,4.25,4.25,0,0,0,3.88-2.38l3.89,2.12c-1.25,2.76-4.11,4.37-7.74,4.37-5.62,0-9.63-3.7-9.63-8.9"/><path class="cls-1" d="M487.45,966.83a7.24,7.24,0,0,1-4.08,1.09c-4.08,0-6.45-2.09-6.45-6.2v-7.1h-2.67v-3.85h2.67v-4.21h5v4.21h4.3v3.85h-4.3v7a2,2,0,0,0,2.15,2.28,3.38,3.38,0,0,0,2-.65Z"/><path class="cls-1" d="M521.83,950.38V955c-.42,0-.74-.07-1.12-.07-2.77,0-4.6,1.51-4.6,4.82v8.16h-5V950.64h4.79v2.28c1.22-1.67,3.27-2.54,5.94-2.54"/><path class="cls-1" d="M523.27,965.32,525,961.4a13.21,13.21,0,0,0,7.42,2.34c3.08,0,4.33-1,4.33-2.41,0-4.2-13.07-1.31-13.07-9.66,0-3.82,3.09-7,9.48-7a15.06,15.06,0,0,1,7.8,2l-1.61,4a12.64,12.64,0,0,0-6.23-1.77c-3.08,0-4.27,1.16-4.27,2.57,0,4.14,13.07,1.29,13.07,9.54,0,3.76-3.11,7-9.53,7-3.57,0-7.17-1.06-9.16-2.6"/><path class="cls-1" d="M562,960.44H548.93c.48,2.15,2.31,3.46,5,3.46a5.82,5.82,0,0,0,4.33-1.67l2.67,2.89a9.07,9.07,0,0,1-7.13,2.8c-6,0-9.86-3.76-9.86-8.9s4-8.89,9.21-8.89c5.08,0,9,3.4,9,9,0,.38-.07.93-.1,1.35m-13.13-2.93h8.51a4.32,4.32,0,0,0-8.51,0"/><path class="cls-1" d="M582.26,960.44H569.19c.48,2.15,2.31,3.46,4.95,3.46a5.82,5.82,0,0,0,4.33-1.67l2.67,2.89a9.07,9.07,0,0,1-7.13,2.8c-6,0-9.86-3.76-9.86-8.9s4-8.89,9.22-8.89c5.07,0,9,3.4,9,9,0,.38-.07.93-.1,1.35m-13.13-2.93h8.51a4.32,4.32,0,0,0-8.51,0"/><polygon class="cls-1" points="593.11 961.14 590.71 963.52 590.71 967.92 585.7 967.92 585.7 944.09 590.71 944.09 590.71 957.58 598.03 950.64 604 950.64 596.81 957.96 604.64 967.92 598.57 967.92 593.11 961.14"/><path class="cls-1" d="M511.55,970.27h0l-5-5a10.6,10.6,0,0,1-2.69,2.25c-.16.12-.32.24-.49.35l5.29,5.29a2,2,0,1,0,2.89-2.88"/><path class="cls-2" d="M500,949.06a2.29,2.29,0,0,1,1.4-.49h.21a2.26,2.26,0,0,0-3.05.37h-.26a.93.93,0,0,0,.11-.44,1,1,0,0,0-.61-.91,1.29,1.29,0,0,1,.1,1.37,9.48,9.48,0,1,0,2.1.08m-3.5,2.48a4.26,4.26,0,0,1,2.1.54,4.1,4.1,0,0,1,2.27-.68,4.15,4.15,0,0,1,3.12,1.41,4.32,4.32,0,0,0-2.84-1.07,4.25,4.25,0,0,0-2.16.58c-.14.08-.27.17-.4.26l-.36-.23a4.25,4.25,0,0,0-2.2-.61,4.38,4.38,0,0,0-1.5.27,4.34,4.34,0,0,1,2-.47m6.63,7.77a4.86,4.86,0,1,1-9.09,0,3.79,3.79,0,1,1,4.55-6,3.79,3.79,0,1,1,4.54,6"/><path class="cls-3" d="M502.92,955.75a1.58,1.58,0,1,1-1.58-1.58,1.64,1.64,0,0,1,.5.08.86.86,0,0,0,.79,1.22,1,1,0,0,0,.25,0,1.46,1.46,0,0,1,0,.31"/><path class="cls-3" d="M497,955.75a1.2,1.2,0,1,1-1.2-1.2,1.12,1.12,0,0,1,.38.07.76.76,0,0,0-.06.27.66.66,0,0,0,.66.65.58.58,0,0,0,.19,0,.93.93,0,0,1,0,.24"/><rect class="cls-1" x="487.59" y="957.09" width="1.08" height="1.08"/><rect class="cls-1" x="508.45" y="957.09" width="1.08" height="1.08"/><path class="cls-1" d="M509.11,957.53h-.25a10.31,10.31,0,1,0-20.61,0H488a10.56,10.56,0,0,1,21.11,0"/><rect class="cls-1" x="498.02" y="946.56" width="1.08" height="1.08"/><rect class="cls-1" x="491.16" y="946.98" width="14.79" height="0.24"/><path class="cls-1" d="M491.55,947.15a.34.34,0,1,1-.34-.34.34.34,0,0,1,.34.34"/><path class="cls-1" d="M506.29,947.15a.34.34,0,1,1-.34-.34.34.34,0,0,1,.34.34"/><path class="cls-1" d="M612.62,966.85a2.07,2.07,0,0,1-4.13,0A2.07,2.07,0,0,1,612.62,966.85Z"/><path class="cls-1" d="M345.54,954.85l3.11,10.65,3.24-10.65h3.88l-4.94,14.24h-4.08l-1.46-4.19L344,960.16l-1.26,4.74-1.47,4.19h-4.07l-5-14.24h3.9l3.25,10.65,3.07-10.65Z"/><path class="cls-1" d="M371.75,954.85l3.1,10.65,3.25-10.65H382L377,969.09H373l-1.46-4.19-1.26-4.74L369,964.9l-1.46,4.19h-4.08l-5-14.24h3.91l3.24,10.65,3.08-10.65Z"/><path class="cls-1" d="M398,954.85l3.1,10.65,3.25-10.65h3.88l-4.94,14.24h-4.08l-1.47-4.19-1.26-4.74-1.26,4.74-1.47,4.19h-4.08l-5-14.24h3.9l3.25,10.65,3.07-10.65Z"/><path class="cls-1" d="M414.09,967.05a2.07,2.07,0,0,1-4.14,0A2.07,2.07,0,0,1,414.09,967.05Z"/><path class="cls-1" d="M627.24,966.85a7.26,7.26,0,0,1-5.45,2.24c-4.11,0-7.53-2.46-7.53-7.49s3.42-7.5,7.53-7.5a6.73,6.73,0,0,1,5.11,2.1l-2.21,2.33a4.3,4.3,0,0,0-2.84-1.12,4,4,0,0,0-4.08,4.19,3.85,3.85,0,0,0,4,4.13,4.25,4.25,0,0,0,3.1-1.17Z"/><path class="cls-1" d="M643.16,961.71a7.37,7.37,0,1,1-7.41-7.37A7.15,7.15,0,0,1,643.16,961.71Zm-11.23,0c0,2.16,1.29,4.17,3.85,4.17s3.85-2,3.85-4.17a4,4,0,0,0-3.85-4.19A3.89,3.89,0,0,0,631.93,961.71Z"/><path class="cls-1" d="M655,969.09v-7.58c0-1.86-1-3.56-2.9-3.56s-3,1.7-3,3.56v7.58h-3.5V954.91h3.25l.25,1.72a4.13,4.13,0,0,1,3.74-2,4.24,4.24,0,0,1,4.19,2.64,5.12,5.12,0,0,1,4.74-2.58c4,0,6,2.47,6,6.72v7.63h-3.5v-7.63c0-1.87-.78-3.45-2.67-3.45a3.23,3.23,0,0,0-3.08,3.5v7.58Z"/><text class="cls-4" transform="translate(332 934.35)"><tspan class="cls-5">D</tspan><tspan class="cls-6" x="10.15" y="0">o</tspan><tspan x="18.41" y="0">wn</tspan><tspan class="cls-7" x="37.87" y="0">l</tspan><tspan x="40.85" y="0">o</tspan><tspan class="cls-7" x="49.26" y="0">a</tspan><tspan class="cls-8" x="56.84" y="0">d </tspan><tspan class="cls-9" x="68.79" y="0">P</tspan><tspan class="cls-10" x="77.68" y="0">N</tspan><tspan class="cls-11" x="88.39" y="0">G PSD</tspan><tspan class="cls-12" x="132.17" y="0"> </tspan><tspan class="cls-13" x="135.02" y="0">S</tspan><tspan class="cls-12" x="143.51" y="0">V</tspan><tspan class="cls-11" x="153.26" y="0">G EPS</tspan><tspan x="194.93" y="0" xml:space="preserve">  </tspan><tspan class="cls-14" x="201.53" y="0">F</tspan><tspan class="cls-6" x="208.92" y="0">o</tspan><tspan x="217.18" y="0">r</tspan><tspan class="cls-15" x="222.63" y="0">m</tspan><tspan class="cls-6" x="235.35" y="0">a</tspan><tspan class="cls-16" x="242.85" y="0">t</tspan><tspan x="248.32" y="0">s In</tspan><tspan class="cls-14" x="270.13" y="0"> </tspan><tspan x="272.99" y="0">Si</tspan><tspan class="cls-7" x="284.59" y="0">n</tspan><tspan x="292.65" y="0">g</tspan><tspan class="cls-7" x="301.3" y="0">l</tspan><tspan x="304.29" y="0">e Zip</tspan></text><path class="cls-17" d="M499.29,251h0v0a249,249,0,0,1,249,249h0a249,249,0,0,1-249,249v0h0v0a249,249,0,0,1-249-249h0a249,249,0,0,1,249-249v0Zm0,62.46h0v0A186.48,186.48,0,0,1,685.81,500h0A186.48,186.48,0,0,1,499.29,686.52v0h0v0A186.48,186.48,0,0,1,312.77,500h0A186.48,186.48,0,0,1,499.29,313.48v0Zm0,11.14v0h0v0A175.49,175.49,0,0,0,323.89,500h0a175.49,175.49,0,0,0,175.4,175.4v0h0v0A175.49,175.49,0,0,0,674.69,500h0a175.49,175.49,0,0,0-175.4-175.4Zm0-62.46v0h0v0A237.94,237.94,0,0,0,261.43,500h0A237.94,237.94,0,0,0,499.29,737.86v0h0v0A237.94,237.94,0,0,0,737.15,500h0A237.94,237.94,0,0,0,499.29,262.14Z"/><path class="cls-18" d="M499.32,667.15h-.06c-21.8-8.58-37.82-20.29-64.06-40.94s-49.07-56-49.07-91.16V379.81l113.13-.15h.06l113.13.15V535.05c0,35.15-22.81,70.49-49.07,91.16s-42.26,32.36-64.06,40.94Z"/><path class="cls-17" d="M465.84,655.85c-10.32-6.79-20.95-14.92-34.09-25.26h0a136,136,0,0,1-11.23-9.92,147.12,147.12,0,0,1-10.44-11.42c-17.17-20.86-29.53-47.52-29.53-74.2V374.26h5.58l113.13-.15v0h.06v0l113.13.15H618V535.05h0c0,18.6-6,37.16-15.41,53.75-1.48,2.61-3.1,5.24-4.83,7.87a145.4,145.4,0,0,1-30.94,33.91c-13.14,10.34-23.77,18.47-34.09,25.26a165.12,165.12,0,0,1-33.44,17.24,162.51,162.51,0,0,1-33.46-17.24Zm-74.12-183H606.86V385.37l-107.54-.15v0h-.06v0l-107.54.15v87.44Zm215.14,9.61H503.63V659.3a158.25,158.25,0,0,0,23-12.74c9.7-6.38,20.2-14.42,33.31-24.74a134,134,0,0,0,28.54-31.24c1.51-2.31,3-4.73,4.44-7.27,8.54-15,14-31.72,14-48.25h0V482.42ZM494,658.88V482.42H391.72v52.63c0,23.94,11.28,48.09,26.95,67.14a136.52,136.52,0,0,0,9.66,10.54,125.32,125.32,0,0,0,10.31,9.09h0c13.11,10.32,23.61,18.36,33.31,24.74A160.62,160.62,0,0,0,494,658.88Z"/><path class="cls-17" d="M443.79,510.92v87.32c7.8.34,16.86-.71,24.74-1.62,2.52-.29,4.92-.57,7.86-.84a57.93,57.93,0,0,1,14.79.1,21.19,21.19,0,0,1,8.11,3,21.19,21.19,0,0,1,8.11-3,57.93,57.93,0,0,1,14.79-.1c2.95.27,5.34.55,7.86.84,7.88.91,16.94,2,24.74,1.62V510.92c-8.69.4-18.22-.7-26.52-1.66-3-.34-5.82-.67-7.64-.84a48.17,48.17,0,0,0-12,0,9.2,9.2,0,0,0-5.3,2.39l-4-4-4,4a9.2,9.2,0,0,0-5.3-2.39,48.17,48.17,0,0,0-12,0c-1.82.17-4.66.5-7.64.84-8.29,1-17.83,2.06-26.52,1.66Zm40.53,16.51c-2.63,0-5.07.11-7.46.28a76.39,76.39,0,0,0-7.7.92h-.08l-2.49.37c-1,.14-1.86.25-2.5.32a115.59,115.59,0,0,1-12.21.68v-7.43a110,110,0,0,0,11.74-.64c1-.11,1.76-.21,2.33-.29s1.23-.18,2.26-.35l.08,0c2.85-.48,5.6-.78,8.42-1,2.5-.17,5-.25,7.61-.29v7.42Zm0,11.73v7.42c-2.63,0-5.07.11-7.46.28a76.39,76.39,0,0,0-7.7.92h-.08l-2.49.37c-1,.14-1.86.25-2.5.32a115.59,115.59,0,0,1-12.21.68v-7.43a110,110,0,0,0,11.74-.64c1-.11,1.76-.21,2.33-.29s1.23-.18,2.26-.35l.08,0c2.85-.48,5.6-.78,8.42-1,2.5-.17,5-.25,7.61-.29Zm0,19.15v7.42c-2.63,0-5.07.11-7.46.28a76.39,76.39,0,0,0-7.7.92h-.08l-2.49.37c-1,.14-1.86.25-2.5.32a115.59,115.59,0,0,1-12.21.68v-7.43a110,110,0,0,0,11.74-.64c1-.11,1.76-.21,2.33-.29s1.23-.18,2.26-.35l.08,0c2.85-.48,5.6-.78,8.42-1,2.5-.17,5-.25,7.61-.29Zm0,19.15v7.42c-2.63,0-5.07.11-7.46.28a76.39,76.39,0,0,0-7.7.92h-.08c-.54.09-1.38.22-2.49.37s-1.86.25-2.5.32a115.59,115.59,0,0,1-12.21.68V580a110,110,0,0,0,11.74-.64c1-.11,1.76-.21,2.33-.29s1.23-.18,2.26-.35l.08,0c2.85-.48,5.6-.78,8.42-1,2.5-.17,5-.25,7.61-.29Zm29.94-50c2.63,0,5.07.11,7.47.28a76.56,76.56,0,0,1,7.69.92h.08L532,529c1,.14,1.86.25,2.51.32a115.25,115.25,0,0,0,12.2.68v-7.43a110,110,0,0,1-11.74-.64c-1-.11-1.75-.21-2.33-.29s-1.23-.18-2.26-.35l-.07,0c-2.86-.48-5.61-.78-8.43-1-2.5-.17-5-.25-7.61-.29v7.42Zm0,11.73v7.42c2.63,0,5.07.11,7.47.28a76.56,76.56,0,0,1,7.69.92h.08l2.49.37c1,.14,1.86.25,2.51.32a115.25,115.25,0,0,0,12.2.68v-7.43a110,110,0,0,1-11.74-.64c-1-.11-1.75-.21-2.33-.29s-1.23-.18-2.26-.35l-.07,0c-2.86-.48-5.61-.78-8.43-1-2.5-.17-5-.25-7.61-.29Zm0,19.15v7.42c2.63,0,5.07.11,7.47.28a76.56,76.56,0,0,1,7.69.92h.08l2.49.37c1,.14,1.86.25,2.51.32a115.25,115.25,0,0,0,12.2.68v-7.43a110,110,0,0,1-11.74-.64c-1-.11-1.75-.21-2.33-.29s-1.23-.18-2.26-.35l-.07,0c-2.86-.48-5.61-.78-8.43-1-2.5-.17-5-.25-7.61-.29Zm0,19.15v7.42c2.63,0,5.07.11,7.47.28a76.56,76.56,0,0,1,7.69.92h.08c.54.09,1.38.22,2.49.37s1.86.25,2.51.32a115.25,115.25,0,0,0,12.2.68V580a110,110,0,0,1-11.74-.64c-1-.11-1.75-.21-2.33-.29s-1.23-.18-2.26-.35l-.07,0c-2.86-.48-5.61-.78-8.43-1-2.5-.17-5-.25-7.61-.29Zm-19.57,31.8a9.17,9.17,0,0,0-5.3-2.39,47.62,47.62,0,0,0-12,0c-1.83.17-4.66.49-7.65.84-10.09,1.16-22,2.54-32.06,1.17h0l-4.72-.67V590H421.43V576.6H432.9V561.84H421.43V548.49H432.9V529.66H421.43V516.31H432.9V499.8a321.92,321.92,0,0,0,36.22-1.62c2.52-.29,4.91-.56,7.85-.84a57.92,57.92,0,0,1,14.79.1,21.92,21.92,0,0,1,7.53,2.62,21.92,21.92,0,0,1,7.53-2.62,57.92,57.92,0,0,1,14.79-.1c2.94.28,5.33.55,7.86.84a321.63,321.63,0,0,0,36.21,1.62v16.51h11.47v13.35H565.68v18.83h11.47v13.35H565.68V576.6h11.47V590H565.68V608.2l-4.72.67h0c-10,1.37-22,0-32.06-1.17-3-.35-5.82-.67-7.64-.84a47.7,47.7,0,0,0-12,0c-2.4.41-4.56,1.17-5.73,2.39Z"/><path class="cls-18" d="M444,397.94h28.56v38.68c0,9.26-19.58,19.84-28.54,25.12-9-5.44-28.53-16.08-28.53-25.12V397.94Z"/><path class="cls-17" d="M444,392.35h0v0h34.1v44.24h0c0,11.08-16.36,21.23-27.21,27.56-2.83,1.66,3.39-2-4.08,2.36L444,468.23l-2.83-1.71-2.66-1.59c-10.75-6.37-28.58-16.93-28.58-28.31V392.38H444v0Zm-22.93,21.58H467V403.5H444v0h0v0H421.07v10.43Zm45.9,10.6h-45.9v12.09c0,5,14.28,13.5,23,18.65l1.24-.73h0C454,449.48,467,441.6,467,436.62h0V424.53Z"/><path class="cls-18" d="M554.54,397.94h28.55v38.68c0,9.26-19.57,19.84-28.53,25.12-9-5.44-28.53-16.08-28.53-25.12V397.94Z"/><path class="cls-17" d="M554.54,392.35h.05v0h34.09v44.24h0c0,11.08-16.36,21.23-27.21,27.56-2.83,1.66,3.39-2-4.08,2.36l-2.86,1.69-2.83-1.71L549,464.93c-10.75-6.37-28.58-16.93-28.58-28.31V392.38h34.1v0Zm-22.93,30.22,22.95-15.84,23,15.84V403.5H554.59v0h-.05v0H531.61v19.07Zm45.9,12.83-23-15.84L531.61,435.4v1.22c0,5,14.29,13.5,23,18.65l1.24-.73h0c8.66-5.06,21.7-12.94,21.7-17.92h0V435.4Z"/><path class="cls-17" d="M299.23,475.56a19.37,19.37,0,0,1,.77,7.64c-.64,7.32-6.28,11.18-13.25,10.57s-12.05-5.5-11.43-12.58a14.32,14.32,0,0,1,2.47-7.26l-5.75-1a22.63,22.63,0,0,0-2.11,7.64c-1,11.64,4.94,19.39,16.68,20.42,11.59,1,17.83-6.21,18.8-17.31a34.3,34.3,0,0,0-.41-7.91l-5.77-.21Zm-9.66-15.29c10.14,2.91,18.82-.66,21.86-11.28s-2.56-18.28-12.56-21.15-18.69,1-21.67,11.34,2.23,18.18,12.37,21.09Zm2-6.92c-5.84-1.67-11-6.09-9.14-12.68s8.63-7.58,14.46-5.91c6,1.72,11.28,6,9.33,12.74s-8.68,7.56-14.65,5.85Zm7.05-52.69,1.06-2c1.62-3.05,3.73-6.28,7.39-4.34s2.4,5.69.8,8.69l-1.07,2-8.18-4.36ZM321,420.37l3.24-6.09-12.63-6.72,1-2c1.37-2.57,2.66-2.89,5.39-2.55l11.43,1.39,3.61-6.8-14.48-1.44c-1.67-.11-3.83,0-4.84,1.56l-.09-.05a7.87,7.87,0,0,0-3.72-10c-8.45-4.49-12.37,3.42-15.85,9.95l-3.49,6.57L321,420.37Zm18.59-32.87,4.16-5.14-20-16.2.06-.07,28.29,6,5.31-6.55-26.75-21.66L326.47,349l20,16.2-.06.07-28.26-6-5.34,6.59,26.75,21.66Zm28.66-32.67,16.09-12.56L381,338l-10.65,8.32-5.95-7.62,9.68-7.56-3.34-4.27L361,334.42l-5.22-6.69,10.57-8.25L363,315.2l-16,12.51,21.19,27.12Zm28.35-20.68,17.73-9.82-2.63-4.75L400,326.06,385.92,300.7l-6,3.35,16.69,30.1Zm28.51-14.58,19.27-6.27-1.67-5.16L430,312.27l-9-27.57-6.57,2.13,10.64,32.74ZM468,294.83c.65,9.2,6.13,12.63,14.93,12s13.76-4.77,13.11-14l-1.53-21.94-6.89.48L489,291.23c.41,5.86-1.19,9.83-6.46,10.19s-7.4-3.34-7.81-9.19l-1.38-19.82-6.89.48L468,294.83Zm43.85,10.63,6.56.81,3.13-25.55h.1l9.93,27.16,8.37,1,4.2-34.16-6.56-.81-3.14,25.55h-.1l-9.88-27.15-8.42-1-4.19,34.16Zm42.21,8,6.57,2.13,10.64-32.73-6.57-2.14-10.64,32.74Zm28,10.46,7.56,3.85,25.95-25.4-6.1-3.12-20.05,20.12-.09-.05,4.41-28.08-6.6-3.36-5.08,36ZM610.16,340l16.09,12.57,3.34-4.28L618.94,340l5.95-7.61,9.68,7.56,3.34-4.28-9.68-7.56,5.22-6.68L644,329.69l3.34-4.28-16-12.51L610.16,340Zm52.51,8,1.49,1.71c2.27,2.61,4.53,5.74,1.4,8.46s-6.16.19-8.39-2.37l-1.49-1.72,7-6.08Zm-26.41,13.82,4.53,5.21,10.79-9.39,1.46,1.68c1.91,2.19,1.75,3.51.46,5.94l-5.4,10.18,5,5.8,6.54-13c.7-1.52,1.4-3.57.28-5.08l.08-.07a7.85,7.85,0,0,0,10.68.12c7.22-6.27,1.25-12.77-3.6-18.36l-4.89-5.62-26,22.59ZM699.65,391a26.15,26.15,0,0,0-3-7.75c-3-5.25-8.45-9-15.12-5.17-9.86,5.7,0,17.41-5.65,20.69-2.69,1.55-5.59-.81-6.9-3.08a16.48,16.48,0,0,1-2.06-7.8l-5.7,2.55a30.13,30.13,0,0,0,3.25,8.31c3.48,6,9,9.76,15.48,6,10-5.77.27-17.58,5.44-20.56,3.25-1.87,5.67.26,6.85,2.31a17.69,17.69,0,0,1,2.22,6.8l5.24-2.28ZM677.26,421.6l2.58,6.4,31.92-12.89-2.59-6.4L677.26,421.6ZM686.2,448l1.9,6.64,27.88-8,2.71,9.48,5.22-1.5-7.34-25.6-5.22,1.5,2.72,9.48-27.87,8Zm6.59,37.24.6,6.88L707,491l21.81,10.47-.64-7.27-15.11-7,13.68-9.36-.7-8.06-19.64,14.34-13.56,1.19Z"/><path class="cls-17" d="M275.33,553.5l1.78,6.67,14.58-3.9,3,11.24,5.24-1.41-3-11.24,8.19-2.19,3.17,11.81,5.24-1.4-5-18.48-33.24,8.9Zm25.48,24.67c-9.49,4.62-13.55,13.08-8.71,23s14.14,11.86,23.49,7.3,13.26-13.21,8.52-22.92-13.82-12-23.3-7.39Zm3.15,6.47c5.45-2.66,12.27-2.86,15.28,3.3s-1.35,11.41-6.8,14.07-12.36,3.12-15.45-3.22,1.39-11.43,7-14.15Zm17,40.69c-7.27,5.67-7.05,12.13-1.61,19.09s11.65,8.73,18.92,3.06l17.33-13.54-4.25-5.45L335.7,640.73c-4.63,3.61-8.81,4.5-12.06.35s-1.37-8,3.25-11.62l15.66-12.23-4.25-5.44L321,625.33Zm22,44.42,5.21,4.07,15.85-20.29.07.06L358.65,682l6.65,5.19,21.19-27.12L381.28,656l-15.85,20.29-.07-.06,5.51-28.36-6.69-5.23L343,669.75Zm42.29,30.14,8.39,4.27c9.4,4.79,19.32,5.86,25.52-6.31s-.49-19.57-9.9-24.36l-8.39-4.27-15.62,30.67Zm19.31-22.7,3.43,1.74c5.14,2.62,8.16,9,4.75,15.65s-10.31,8-15.45,5.36l-3.43-1.75,10.7-21Zm24.54,41.71,19.62,5.63,1.5-5.22-13-3.72,2.67-9.29,11.8,3.38,1.49-5.21-11.8-3.39,2.34-8.15,12.89,3.7,1.5-5.22-19.53-5.6-9.49,33.09ZM471.07,728l9.38.82c10.51.92,20.11-1.8,21.3-15.41s-7.79-18-18.3-18.88l-9.38-.82-3,34.29Zm9.4-28.29,3.83.34c5.75.5,10.93,5.26,10.28,12.73s-6.58,11.26-12.33,10.75l-3.83-.33,2.05-23.49Zm66.09,11-9.76,2.43,1.4-15,.09,0,8.27,12.58ZM528.25,729l6.94-1.73,1-8.38,13.54-3.38,4.78,6.94,7.42-1.85L540.5,690.51l-7.56,1.88L528.25,729Zm42.89-10.92,6.49-2.36-2.36-6.48-6.49,2.36,2.36,6.48Zm23.52-9,8.39-4.27c9.4-4.79,16.1-12.19,9.9-24.36s-16.12-11.1-25.52-6.31l-8.4,4.27,15.63,30.67Zm-7-29,3.42-1.75c5.15-2.61,12.06-1.32,15.46,5.36s.39,13-4.75,15.65l-3.43,1.74-10.7-21Zm39.42,10.54,5.59-4.06L628.6,681l-5.59,4,4.06,5.59Zm9.13-40,5.64.53.5-7.48,19.44,18.13,4.71-5.05-25.17-23.48-4.17,4.47-.95,12.88Zm32.61-24.12c-.72,4.55.21,7.85,3.37,10.06,5.73,4,11.23,1.24,15.08-4.25s4.28-11.45-1.42-15.44c-3.23-2.26-6.84-2.26-11.18.24l0,0a9.06,9.06,0,0,0-3.47-9.41c-4.72-3.31-9.92-.27-13.4,4.7-3.59,5.13-3.9,10.64,1.15,14.17,3,2.07,6.6,1.85,9.83-.1l.08.06Zm-6-5.26c-2.26-1.58-2-4.43-.5-6.49a4,4,0,0,1,6-1c1.74,1.22,2.41,4,1.88,6-2.09,1.43-4.93,3.17-7.36,1.47Zm13.21,9.61c-2.39-1.67-2.58-4.15-2.13-6.85,2.41-1.81,5.41-3.26,8.19-1.3,2.35,1.64,2.52,4.4.93,6.67a5,5,0,0,1-7,1.48Zm3.07-54.36a21.41,21.41,0,0,0-4.08,6.12c-4.53,10.18,3.62,17.1,12.13,20.89,7.39,3.29,15.51,4.58,19.41-4.16,3.16-7.11.14-12.46-6.67-15.48-5.81-2.59-11-1-13.68,4.91a7.46,7.46,0,0,0,.44,7.49l-.13.05c-4.6-2.27-8.83-6.36-6.4-11.81a14.63,14.63,0,0,1,3.71-4.94l-4.73-3.07Zm11.17,15.76c1.34-3,4.74-3,7.81-1.65,2.79,1.25,5.08,3.73,3.78,6.65-1.38,3.11-4.56,3.21-7.53,1.89-3.15-1.41-5.43-3.82-4.06-6.89ZM689.07,544,684,563.13l17.77,5.12a20.28,20.28,0,0,1,.7-6.2c1-3.81,3.51-7.23,7.8-6.08s4.89,5.19,4,8.67a17.85,17.85,0,0,1-3.49,6.37l5.91,1.73a36.84,36.84,0,0,0,3-7.5c2.3-8.58-1.58-14.32-7.82-16-8.63-2.31-12.44,3.16-13.69,7.82a16.37,16.37,0,0,0-.48,3.14l-7.06-2L694,545.35,689.07,544Z"/></svg>